<svg width="60" height="80" viewBox="0 0 60 80" fill="none" xmlns="http://www.w3.org/2000/svg">
<path d="M16.1334 10.7589H20.8308V15.4464H16.1334V10.7589Z" fill="#CD1F47"/>
<path d="M26.8925 10.7589H31.5898V15.4464H26.8925V10.7589Z" fill="#CD1F47"/>
<path d="M55.2142 43.0783V40.1433C55.2142 35.528 52.018 31.6472 47.7233 30.593V21.5178H42.3438V0H5.37953V21.5178H0V66.8973C0 74.1222 5.87781 80 13.1027 80H34.6206C41.0452 80 46.4008 75.3508 47.5092 69.2411H59.5883V43.0783H55.2142ZM50.5267 40.1433V43.0783H40.2322V40.1433C40.2322 37.3052 42.5413 34.9961 45.3794 34.9961C48.2175 34.9961 50.5267 37.3052 50.5267 40.1433ZM10.067 4.6875H37.6562V21.5178H10.067V4.6875ZM34.6206 75.3125H13.1027C8.4625 75.3125 4.6875 71.5375 4.6875 66.8973V26.2053H43.0358V30.593C38.7411 31.6472 35.5448 35.528 35.5448 40.1433V43.0783H31.1709V69.2409H42.7012C41.6834 72.7441 38.4473 75.3125 34.6206 75.3125ZM54.9006 64.5536H47.7231V53.8158H43.0356V64.5536H35.8581V47.7658H54.9005V64.5536H54.9006Z" fill="#CD1F47"/>
</svg>
