<svg width="80" height="80" viewBox="0 0 80 80" fill="none" xmlns="http://www.w3.org/2000/svg">
<path d="M40 16.6034C37.1173 16.6034 34.4061 17.7264 32.3657 19.7656C30.3271 21.806 29.2041 24.5166 29.2041 27.3993V36.2933H25.7233C24.8608 36.2933 24.1608 36.9934 24.1608 37.8558V59.5331C24.1608 60.3955 24.8608 61.0956 25.7233 61.0956H54.2767C55.1392 61.0956 55.8392 60.3955 55.8392 59.5331V37.8558C55.8392 36.9934 55.1392 36.2933 54.2767 36.2933H50.7959V27.3993C50.7959 21.4465 45.9528 16.6034 40 16.6034ZM32.3291 27.3993C32.3291 25.351 33.1268 23.4247 34.5752 21.9751C36.0254 20.5261 37.9517 19.7284 40 19.7284C44.2297 19.7284 47.6709 23.1696 47.6709 27.3993V36.2933H45.1331V27.3993C45.1331 24.5691 42.8302 22.2662 40 22.2662C38.6292 22.2662 37.3401 22.8009 36.3702 23.7708C35.401 24.7394 34.8676 26.0284 34.8676 27.3993V36.2933H32.3291V27.3993ZM37.9919 36.2933V27.3993C37.9919 26.8628 38.2007 26.3593 38.5797 25.9802C38.9594 25.6006 39.4635 25.3912 40 25.3912C41.1072 25.3912 42.0081 26.2921 42.0081 27.3993V36.2933H37.9919ZM52.7142 57.9706H27.2858V39.4183H52.7136V57.9706H52.7142Z" fill="#CD1F47"/>
<path d="M68.4821 11.9189C68.4784 11.9153 68.4753 11.911 68.4717 11.9073C68.4698 11.9055 68.468 11.9043 68.4668 11.9031C68.4058 11.8408 68.3459 11.7773 68.2843 11.7157C60.7288 4.16077 50.6842 0 40 0C31.1938 0 22.5928 2.93213 15.6348 8.2782C14.7632 7.72278 13.7305 7.39929 12.6227 7.39929C9.52271 7.39929 7.00134 9.92126 7.00134 13.0212C7.00134 14.1577 7.34131 15.2161 7.92419 16.1017C5.53589 19.3018 3.64868 22.8174 2.31079 26.5717C0.777588 30.8746 0 35.3925 0 40C0 43.4753 0.446777 46.9263 1.32751 50.2563C1.54846 51.0901 2.40356 51.5881 3.23792 51.3672C4.07166 51.1462 4.56909 50.2911 4.34875 49.4568C3.66882 46.8866 3.27087 44.2383 3.15857 41.5625H12.9895C13.8525 41.5625 14.552 40.863 14.552 40C14.552 39.137 13.8525 38.4375 12.9895 38.4375H3.15735C3.46008 31.0468 5.90942 24.0839 10.2997 18.1403C11.026 18.4698 11.8256 18.6426 12.6227 18.6426C13.8788 18.6426 15.0397 18.2281 15.9766 17.5299C17.9199 18.7518 20.6659 20.2167 24.1479 21.4398C23.3777 24.8376 22.8113 28.5492 22.486 32.5085C22.4158 33.3685 23.0554 34.1229 23.9154 34.1937C23.9594 34.1968 24.0021 34.1986 24.0448 34.1986C24.8499 34.1986 25.5334 33.5803 25.6006 32.7637C25.9412 28.6127 26.5784 24.6484 27.4683 21.0376C27.489 20.9888 27.5085 20.9399 27.5244 20.8881C27.5592 20.7782 27.58 20.6671 27.5891 20.556C28.4918 17.0197 29.6387 13.8348 30.9924 11.167C33.6237 5.98083 36.8225 3.125 40 3.125C46.6736 3.125 52.8363 15.5463 54.3347 32.0184C54.4128 32.8778 55.1764 33.5114 56.0321 33.4326C56.8915 33.3545 57.525 32.5946 57.4469 31.7352C57.1198 28.1396 56.5735 24.6759 55.8362 21.4465C61.6595 19.4073 65.4797 16.687 67.2858 15.1965C73.1323 21.6138 76.4807 29.7577 76.8402 38.4375H74.3695C73.6908 36.0962 71.5277 34.3787 68.9703 34.3787C66.413 34.3787 64.2505 36.0962 63.5712 38.4375H60.437C59.5746 38.4375 58.8745 39.1376 58.8745 40C58.8745 40.863 59.5746 41.5625 60.437 41.5625H63.5712C64.2499 43.9044 66.413 45.6219 68.9703 45.6219C71.5277 45.6219 73.6902 43.9044 74.3695 41.5625H76.8402C76.4807 50.2405 73.1342 58.3832 67.2894 64.8004C66.0638 63.7897 63.9081 62.2083 60.8276 60.658C60.0562 60.2698 59.1174 60.5798 58.7292 61.3507C58.3411 62.1216 58.6517 63.0609 59.4226 63.4491C62.0685 64.7809 63.9624 66.1371 65.0775 67.0319C60.1971 71.5674 54.2938 74.6411 47.9016 76.0297C47.9413 75.9863 47.9822 75.9454 48.0225 75.9015C50.2417 73.4528 52.1698 70.0232 53.7518 65.7092C54.0485 64.8993 53.6328 64.0015 52.8229 63.7042C52.0123 63.407 51.1151 63.8232 50.8179 64.6332C49.3951 68.5126 47.6276 71.6833 45.7068 73.8025C43.8586 75.8411 41.9385 76.875 40 76.875C36.0907 76.875 32.2229 72.6135 29.3878 65.1837C29.0802 64.3774 28.1775 63.9734 27.3712 64.2804C26.5649 64.588 26.1609 65.4913 26.4685 66.2976C28.0511 70.4456 29.95 73.7183 32.0734 76.0242C30.0781 75.5872 28.1219 74.9823 26.2134 74.212C26.4783 72.7997 26.1829 71.3135 25.3967 70.1111C24.6417 68.9569 23.4668 68.1012 22.1332 67.746C21.2885 67.5214 20.3918 67.4982 19.5361 67.677C18.6218 67.8668 17.7747 68.2794 17.066 68.8776C16.3251 68.2892 15.6091 67.6733 14.9182 67.0325C16.0449 66.1267 17.9797 64.743 20.722 63.3771C21.4941 62.9926 21.8085 62.0544 21.424 61.2823C21.0394 60.5103 20.1013 60.1953 19.3292 60.5804C16.1646 62.1558 13.9563 63.7738 12.7106 64.8016C11.4447 63.4094 10.2838 61.9196 9.23645 60.3387C8.75977 59.6191 7.79053 59.4226 7.07153 59.8987C6.35193 60.3754 6.15479 61.3452 6.63147 62.0642C9.01611 65.6635 11.9385 68.8263 15.3284 71.4844C15.1587 72.0197 15.0665 72.5891 15.0665 73.1793C15.0665 76.2793 17.5885 78.8007 20.6885 78.8007C22.3096 78.8007 23.7726 78.1097 24.7992 77.0081C29.6216 78.9923 34.729 80 40 80C50.6842 80 60.7288 75.8392 68.2843 68.2843C75.8392 60.7294 80 50.6842 80 40C80 29.4104 75.9106 19.4507 68.4821 11.9189ZM20.6879 75.6757C19.3115 75.6757 18.1915 74.5557 18.1915 73.1793C18.1915 72.6666 18.3472 72.1893 18.6127 71.7926C18.6169 71.7865 18.6212 71.7804 18.6255 71.7743C18.9392 71.3153 19.4019 70.9656 19.9432 70.7959C21.3666 70.3442 22.9083 71.3037 23.1506 72.7704C23.2281 73.2397 23.1696 73.7311 22.9797 74.1669C22.5958 75.0531 21.7139 75.6757 20.6879 75.6757ZM12.6227 10.5243C13.3807 10.5243 14.0601 10.8655 14.5178 11.4008C15.1733 12.1674 15.3021 13.2843 14.834 14.1779C14.4189 14.9689 13.5846 15.4968 12.6892 15.5164C12.077 15.5298 11.4697 15.3162 11.004 14.9182C10.4675 14.4598 10.1263 13.7799 10.1263 13.0212C10.1263 11.6443 11.2463 10.5243 12.6227 10.5243ZM24.9158 18.3978C21.955 17.3346 19.5929 16.0919 17.8723 15.0293C18.1116 14.4049 18.2446 13.7286 18.2446 13.0212C18.2446 12.1967 18.0597 11.3696 17.7081 10.6238C21.9727 7.38708 26.8976 5.13 32.0959 3.98682C29.1437 7.17834 26.6602 12.149 24.9158 18.3978ZM51.6663 9.50378C50.5151 7.27905 49.259 5.43213 47.9187 3.97461C54.3018 5.36438 60.1965 8.43384 65.0708 12.962C63.4186 14.2841 60.061 16.6144 55.0665 18.4052C54.1364 15.0775 52.9919 12.0654 51.6663 9.50378ZM68.9703 42.4963C67.594 42.4963 66.474 41.3763 66.474 40C66.474 38.6237 67.594 37.5037 68.9703 37.5037C70.2985 37.5037 71.3849 38.5468 71.46 39.8566C71.4508 39.9524 71.4508 40.0476 71.46 40.1434C71.3849 41.4532 70.2985 42.4963 68.9703 42.4963Z" fill="#CD1F47"/>
<path d="M44.8022 42.9382L37.5543 49.9786L35.434 47.644C34.8535 47.005 33.8654 46.958 33.2263 47.5378C32.5879 48.1183 32.5403 49.1064 33.1207 49.7449L36.3269 53.2758C36.6119 53.5889 37.0117 53.7738 37.4347 53.7866C37.4512 53.7872 37.4677 53.7872 37.4835 53.7872C37.8894 53.7872 38.2806 53.6292 38.5724 53.3459L46.98 45.1801C47.5989 44.5789 47.6129 43.5895 47.0117 42.9706C46.4105 42.3517 45.4218 42.3364 44.8022 42.9382Z" fill="#CD1F47"/>
<path d="M18.8031 41.4423C19.4122 41.6962 20.1355 41.5271 20.5725 41.0327C20.9869 40.5627 21.0773 39.8712 20.8014 39.3091C20.5035 38.7018 19.8181 38.349 19.1504 38.4583C18.5022 38.5651 17.984 39.0747 17.8638 39.7205C17.7313 40.4333 18.1323 41.167 18.8031 41.4423Z" fill="#CD1F47"/>
<path d="M6.0907 54.7736C5.64453 54.3256 4.94324 54.1931 4.36401 54.4446C3.76099 54.7064 3.37219 55.3424 3.42712 55.9998C3.48267 56.6718 3.97339 57.2437 4.62952 57.3987C5.26001 57.547 5.93628 57.2772 6.2915 56.7352C6.69128 56.1224 6.60889 55.2917 6.0907 54.7736Z" fill="#CD1F47"/>
</svg>
