<svg width="23" height="20" viewBox="0 0 23 20" fill="none" xmlns="http://www.w3.org/2000/svg">
<path d="M22.5929 4.12588L11.6026 15.117C11.3259 15.392 10.8782 15.392 10.6016 15.117L9.10296 13.6184L9.08823 13.5963L4.33541 8.80668C4.0604 8.53167 4.0604 8.08234 4.33541 7.80733L5.8332 6.31118C6.10984 6.03372 6.5559 6.03372 6.83254 6.31118L11.1074 10.6179L20.0941 1.62874C20.3708 1.35292 20.8185 1.35292 21.0935 1.62874L22.5929 3.12817C22.8671 3.40236 22.8671 3.85088 22.5929 4.12588Z" fill="white" fill-opacity="0.7"/>
<path d="M17.8384 17.1084C17.8384 17.9047 17.1894 18.5538 16.3914 18.5538H2.89327C2.09527 18.5538 1.44623 17.9047 1.44623 17.1084V2.89C1.44623 2.09363 2.09527 1.44459 2.89327 1.44459H16.3914C17.1894 1.44459 17.8384 2.09363 17.8384 2.89L18.8664 1.93894C19.0326 0.768538 17.8499 0 16.3914 0H2.89327C1.29481 0 0 1.29317 0 2.89V17.1084C0 18.7052 1.29481 20 2.89327 20H16.3914C17.9899 20 19.2847 18.7052 19.2847 17.1084V8.63235L17.8376 10.2071L17.8384 17.1084Z" fill="white" fill-opacity="0.7"/>
</svg>
