<svg width="82" height="80" viewBox="0 0 82 80" fill="none" xmlns="http://www.w3.org/2000/svg">
<path d="M80.2377 69.0627H78.6392V17.5003C78.6392 14.9156 76.4881 12.8128 73.8441 12.8128H63.7396C58.91 9.8967 55.1144 3.73609 54.4078 1.15797C54.2206 0.474999 53.5873 0 52.8639 0H28.9723C28.2489 0 27.6156 0.474999 27.4285 1.15812C26.7218 3.7364 22.9262 9.89686 18.0966 12.8129H7.99179C5.34778 12.8129 3.19672 14.9158 3.19672 17.5004V69.0628H1.59836C0.715745 69.0628 0 69.7624 0 70.6253V75.3128C0 77.8975 2.15091 80.0003 4.79491 80.0003H77.041C79.685 80.0003 81.8361 77.8975 81.8361 75.3128V70.6253C81.8361 69.7622 81.1205 69.0627 80.2377 69.0627ZM75.4425 17.5004V19.0629H64.6152C64.7372 18.0197 64.8203 16.9772 64.8615 15.9379H73.8441C74.7255 15.9379 75.4425 16.6389 75.4425 17.5004ZM30.1223 3.12499H51.7139C53.1353 6.70718 56.9706 12.2278 61.6867 15.2415C61.4954 23.269 58.6529 31.5612 53.6337 38.6887C49.1087 45.1141 44.084 48.9001 40.9181 49.9313C37.7523 48.9001 32.7275 45.1141 28.2027 38.6887C23.1837 31.5612 20.341 23.269 20.1497 15.2414C24.8658 12.2278 28.7011 6.70702 30.1223 3.12499ZM7.99179 15.9379H16.9747C17.016 16.9773 17.0991 18.0198 17.221 19.0629H6.39359L6.39343 17.5004C6.39343 16.6389 7.11061 15.9379 7.99179 15.9379ZM6.39343 65.9375H33.726C34.6086 65.9375 35.3243 65.238 35.3243 64.375C35.3243 63.5121 34.6086 62.8125 33.726 62.8125H6.39343V22.1879H17.7048C18.9333 28.559 21.621 34.8534 25.5696 40.4606C30.1324 46.9402 35.9947 51.8904 40.5043 53.0716C40.6398 53.1071 40.7789 53.1249 40.918 53.1249C41.057 53.1249 41.1961 53.1071 41.3316 53.0716C45.8414 51.8904 51.7037 46.9402 56.2665 40.4607C60.2151 34.8535 62.9027 28.5592 64.1312 22.1881H75.4425V62.8127H48.1112C47.2286 62.8127 46.5128 63.5122 46.5128 64.3752C46.5128 65.2382 47.2286 65.9377 48.1112 65.9377H75.4425V69.0628H50.5081C49.6255 69.0628 48.9097 69.7624 48.9097 70.6253H32.9262C32.9262 69.7624 32.2104 69.0628 31.3278 69.0628H6.39343V65.9375ZM78.6394 75.3127C78.6394 76.1742 77.9223 76.8752 77.041 76.8752H4.79507C3.91374 76.8752 3.19688 76.1742 3.19688 75.3127V72.1877H30.1586C30.7123 73.1211 31.7456 73.7502 32.9263 73.7502H48.9099C50.0908 73.7502 51.1241 73.1211 51.6776 72.1877H78.6395V75.3127H78.6394Z" fill="#CD1F47"/>
<path d="M37.3368 44.1059C37.7645 44.4629 38.8877 45.3707 40.08 46.0884C40.3369 46.2431 40.6275 46.3204 40.918 46.3204C41.2086 46.3204 41.4992 46.2431 41.7561 46.0884C42.9489 45.3703 44.0719 44.4628 44.4995 44.1059C46.8153 42.1725 49.0027 39.7537 51.0005 36.9167C55.1792 30.9826 57.7198 24.3059 58.3478 17.6081C58.3958 17.0981 58.1848 16.5978 57.7836 16.2686C54.7498 13.78 51.933 10.425 50.0559 7.06376C49.7757 6.5622 49.2377 6.25001 48.653 6.25001H33.1834C32.5988 6.25001 32.0607 6.56204 31.7806 7.06376C29.9031 10.4253 27.0865 13.7803 24.0527 16.2686C23.6513 16.5977 23.4405 17.0983 23.4884 17.6083C24.1166 24.3061 26.6573 30.9828 30.8359 36.9168C32.8339 39.754 35.0211 42.1729 37.3368 44.1059ZM34.1151 9.37501H47.7213C49.6227 12.5472 52.2445 15.6619 55.0805 18.1161C54.382 24.0156 52.0701 29.8868 48.3674 35.1448C46.5534 37.7207 44.4982 39.9978 42.4235 41.7296C42.1587 41.9507 41.5878 42.4145 40.918 42.8812C40.2485 42.4145 39.6776 41.9507 39.4127 41.7296C37.3384 39.9981 35.283 37.7211 33.4689 35.1448C29.7663 29.8868 27.4543 24.0156 26.7556 18.1161C29.5916 15.6622 32.2136 12.5475 34.1151 9.37501Z" fill="#CD1F47"/>
<path d="M36.123 26.7538V31.4413C36.123 33.1644 37.5571 34.5663 39.3198 34.5663H42.5166C44.2792 34.5663 45.7132 33.1644 45.7132 31.4413V26.7538C47.7054 25.289 48.9099 22.9702 48.9099 20.504C48.9099 16.1961 45.3248 12.6914 40.9181 12.6914C36.5114 12.6914 32.9263 16.1961 32.9263 20.504C32.9263 22.97 34.1311 25.289 36.123 26.7538ZM40.9181 15.8164C43.5621 15.8164 45.7132 17.9193 45.7132 20.504C45.7132 22.1722 44.7942 23.7285 43.3145 24.5651C42.8207 24.8444 42.5165 25.3597 42.5165 25.9176L42.5166 31.4413H39.3198V25.9176C39.3198 25.3597 39.0157 24.8443 38.5219 24.5651C37.0422 23.7283 36.123 22.1722 36.123 20.504C36.123 17.9193 38.2741 15.8164 40.9181 15.8164Z" fill="#CD1F47"/>
<path d="M40.9192 65.9375C41.8019 65.9375 42.5176 65.238 42.5176 64.375C42.5176 63.5121 41.8019 62.8125 40.9192 62.8125H40.918C40.0353 62.8125 39.3202 63.5121 39.3202 64.375C39.3202 65.238 40.0366 65.9375 40.9192 65.9375Z" fill="#CD1F47"/>
</svg>
