<svg width="16" height="31" viewBox="0 0 16 31" fill="none" xmlns="http://www.w3.org/2000/svg">
<path d="M0.906738 16.9448H4.19522V30.4829C4.19522 30.7502 4.4118 30.9668 4.67909 30.9668H10.2548C10.5221 30.9668 10.7387 30.7502 10.7387 30.4829V17.0086H14.5191C14.7649 17.0086 14.9717 16.8241 14.9998 16.58L15.5739 11.5959C15.5897 11.4588 15.5463 11.3214 15.4545 11.2186C15.3627 11.1156 15.2313 11.0567 15.0934 11.0567H10.7389V7.93241C10.7389 6.9906 11.246 6.51302 12.2463 6.51302C12.3888 6.51302 15.0934 6.51302 15.0934 6.51302C15.3606 6.51302 15.5772 6.29635 15.5772 6.02915V1.45425C15.5772 1.18696 15.3606 0.970378 15.0934 0.970378H11.1696C11.142 0.969023 11.0805 0.966797 10.9899 0.966797C10.3091 0.966797 7.9427 1.10044 6.07341 2.82012C4.00225 4.7258 4.29016 7.00754 4.35896 7.40315V11.0566H0.906738C0.639447 11.0566 0.422867 11.2732 0.422867 11.5404V16.4608C0.422867 16.7281 0.639447 16.9448 0.906738 16.9448Z" fill="white" fill-opacity="0.3"/>
</svg>
