<svg width="31" height="26" viewBox="0 0 31 26" fill="none" xmlns="http://www.w3.org/2000/svg">
<path d="M29.8974 3.52065C29.4261 3.72968 28.9416 3.9061 28.4465 4.04932C29.0326 3.38642 29.4795 2.60642 29.7523 1.75287C29.8135 1.56155 29.7501 1.35213 29.5928 1.227C29.4358 1.10178 29.2176 1.08678 29.0446 1.18926C27.9932 1.81287 26.8588 2.26103 25.6693 2.5231C24.4712 1.35233 22.8438 0.686035 21.1615 0.686035C17.6104 0.686035 14.7213 3.57503 14.7213 7.12606C14.7213 7.40574 14.739 7.68387 14.774 7.95813C10.3674 7.57122 6.27066 5.40532 3.45744 1.95445C3.35718 1.83145 3.20273 1.76516 3.0446 1.77784C2.88637 1.79023 2.74421 1.87945 2.66428 2.01658C2.0937 2.99565 1.79205 4.11542 1.79205 5.25474C1.79205 6.80651 2.34608 8.27884 3.32476 9.42929C3.02718 9.32622 2.73841 9.19742 2.46279 9.04442C2.31483 8.96206 2.13424 8.96332 1.98724 9.04761C1.84015 9.1319 1.74792 9.28693 1.74405 9.45638C1.74337 9.48493 1.74337 9.51348 1.74337 9.54242C1.74337 11.8587 2.99002 13.9441 4.89599 15.0807C4.73224 15.0643 4.5686 15.0406 4.40602 15.0096C4.2384 14.9775 4.06605 15.0363 3.95302 15.1641C3.83979 15.2919 3.80234 15.4699 3.8545 15.6325C4.55999 17.8351 6.37634 19.4552 8.57214 19.9491C6.75095 21.0898 4.66828 21.6873 2.48195 21.6873C2.02576 21.6873 1.56695 21.6605 1.11792 21.6073C0.894858 21.5808 0.681568 21.7125 0.6056 21.9247C0.529632 22.1369 0.610148 22.3735 0.799923 22.4951C3.6086 24.296 6.85624 25.2479 10.1916 25.2479C16.7484 25.2479 20.8502 22.156 23.1365 19.5621C25.9874 16.3278 27.6225 12.0468 27.6225 7.81693C27.6225 7.64022 27.6198 7.46177 27.6144 7.2839C28.7392 6.43645 29.7076 5.41084 30.4956 4.23203C30.6154 4.053 30.6024 3.81639 30.4637 3.65158C30.3252 3.48668 30.0944 3.43336 29.8974 3.52065Z" fill="white" fill-opacity="0.3"/>
</svg>
