<svg width="31" height="30" viewBox="0 0 31 30" fill="none" xmlns="http://www.w3.org/2000/svg">
<path d="M7.56053 9.61859H1.53798C1.27069 9.61859 1.05411 9.83527 1.05411 10.1025V29.4503C1.05411 29.7176 1.27069 29.9342 1.53798 29.9342H7.56053C7.82782 29.9342 8.0444 29.7176 8.0444 29.4503V10.1025C8.0444 9.83527 7.82782 9.61859 7.56053 9.61859Z" fill="white" fill-opacity="0.3"/>
<path d="M4.55143 0C2.36008 0 0.577301 1.78084 0.577301 3.96977C0.577301 6.15968 2.36008 7.94119 4.55143 7.94119C6.74104 7.94119 8.52237 6.15958 8.52237 3.96977C8.52246 1.78084 6.74104 0 4.55143 0Z" fill="white" fill-opacity="0.3"/>
<path d="M22.8793 9.13727C20.4604 9.13727 18.6723 10.1771 17.5878 11.3586V10.102C17.5878 9.83482 17.3712 9.61814 17.1039 9.61814H11.3363C11.069 9.61814 10.8524 9.83482 10.8524 10.102V29.4499C10.8524 29.7172 11.069 29.9338 11.3363 29.9338H17.3457C17.613 29.9338 17.8295 29.7172 17.8295 29.4499V19.8772C17.8295 16.6514 18.7057 15.3947 20.9544 15.3947C23.4033 15.3947 23.598 17.4093 23.598 20.0431V29.45C23.598 29.7173 23.8145 29.9339 24.0818 29.9339H30.0934C30.3607 29.9339 30.5773 29.7173 30.5773 29.45V18.8373C30.5773 14.0407 29.6627 9.13727 22.8793 9.13727Z" fill="white" fill-opacity="0.3"/>
</svg>
