<svg width="100" height="100" viewBox="0 0 100 100" fill="none" xmlns="http://www.w3.org/2000/svg">
<path d="M6.98204 64.0499H27.2667L17.5982 73.3814C16.6483 74.2964 16.3742 75.708 16.9132 76.9114C17.4534 78.1141 18.6893 78.8494 20.0043 78.7487L32.7633 77.8V91.3944C32.7633 93.5516 34.5125 95.3003 36.6697 95.3003H92.9203C95.0775 95.3003 96.8262 93.5516 96.8262 91.3944V35.1439C96.8262 32.9866 95.0775 31.238 92.9203 31.238H65.5758V8.58155C65.5758 6.42434 63.8271 4.67511 61.6699 4.67511H6.98204C4.82483 4.67511 3.07617 6.42434 3.07617 8.58155V60.1441C3.07617 62.3013 4.82483 64.0499 6.98204 64.0499ZM19.772 75.6285L32.2094 63.6162L32.2638 63.5647L48.3885 47.991V87.4874L38.1889 75.5209C37.5835 74.8325 36.7126 74.4377 35.796 74.4377C35.7273 74.4377 35.6604 74.4377 35.5934 74.4377L19.772 75.6285ZM49.6056 45.1288C48.4566 44.639 47.1251 44.8856 46.2261 45.7531L35.8887 55.7301V35.1439C35.8887 34.7124 36.2383 34.3628 36.6697 34.3628H61.6699C62.1014 34.3628 62.451 34.7124 62.451 35.1439V60.1441C62.451 60.5755 62.1014 60.9251 61.6699 60.9251H51.5139V48.0036C51.5127 46.7487 50.7608 45.6175 49.6056 45.1288ZM93.7014 35.1439V91.3944C93.6956 91.823 93.3483 92.1698 92.9203 92.1755H36.6697C36.2411 92.1698 35.8944 91.823 35.8887 91.3944V77.6444L46.0138 89.5187C46.6015 90.2123 47.4644 90.6117 48.373 90.6128C48.7467 90.6117 49.1169 90.5447 49.4671 90.4142C50.7002 89.9708 51.5202 88.7989 51.5139 87.4874V64.0499H61.6699C63.8271 64.0499 65.5758 62.3013 65.5758 60.1441V35.1439C65.5758 34.8812 65.5495 34.6203 65.4968 34.3628H92.9203C93.3483 34.3685 93.6956 34.7153 93.7014 35.1439ZM6.20098 8.58155C6.2067 8.15297 6.55403 7.80621 6.98204 7.80049H61.6699C62.0991 7.80621 62.4453 8.15297 62.451 8.58155V31.317C62.1941 31.2649 61.9326 31.238 61.6699 31.238H36.6697C34.5125 31.238 32.7633 32.9866 32.7633 35.1439V57.8003C32.7656 58.095 32.7885 58.3891 32.832 58.6798L30.5054 60.9251H6.98204C6.55403 60.9194 6.2067 60.5732 6.20098 60.1441V8.58155Z" fill="#30394A"/>
<path d="M12.4512 31.238C13.3141 31.238 14.0139 30.5382 14.0139 29.6758V20.3003C14.0139 19.4374 13.3141 18.7382 12.4512 18.7382C11.5883 18.7382 10.8891 19.4374 10.8891 20.3003V29.6758C10.8891 30.5382 11.5883 31.238 12.4512 31.238Z" fill="#30394A"/>
<path d="M12.4512 15.6128C13.3141 15.6128 14.0139 14.9136 14.0139 14.0501V12.488C14.0139 11.6245 13.3141 10.9253 12.4512 10.9253C11.5883 10.9253 10.8891 11.6245 10.8891 12.488V14.0501C10.8891 14.9136 11.5883 15.6128 12.4512 15.6128Z" fill="#30394A"/>
</svg>
