<svg width="100" height="100" viewBox="0 0 100 100" fill="none" xmlns="http://www.w3.org/2000/svg">
<path d="M85.3571 14.6429C76.3095 5.59524 63.8095 0 50 0C36.1905 0 23.6905 5.59524 14.6429 14.6429C5.59524 23.6905 0 36.1905 0 50C0 63.8095 5.59524 76.3095 14.6429 85.3571C23.6905 94.4048 36.1905 100 50 100C63.8095 100 76.3095 94.4048 85.3571 85.3571C94.4048 76.3095 100 63.8095 100 50C100 36.1905 94.4048 23.6905 85.3571 14.6429ZM81.0714 81.0714C73.0952 89.0476 62.1429 93.9286 50 93.9286C37.8571 93.9286 26.9048 89.0476 18.9286 81.0714C11.0714 73.0952 6.07143 62.1429 6.07143 50C6.07143 37.8571 10.9524 26.9048 18.9286 18.9286C26.9048 10.9524 37.8571 6.07143 50 6.07143C62.1429 6.07143 73.0952 10.9524 81.0714 18.9286C89.0476 26.9048 93.9286 37.8571 93.9286 50C93.9286 62.1429 88.9286 73.0952 81.0714 81.0714Z" fill="white"/>
<path d="M77.7381 46.4286C77.5 46.1905 77.1429 45.7143 76.7857 45.2381C76.6667 45.1191 76.6667 45.1191 76.5477 45C76.1905 44.6429 75.8334 44.4048 75.3572 44.1667L57.7381 34.0476C57.7381 34.0476 57.6191 34.0476 57.6191 33.9286L39.881 23.6905C38.3334 22.7381 36.5476 22.6191 34.881 22.9762C33.2143 23.4524 31.7857 24.5238 30.8334 26.0714C30.4762 26.5476 30.3572 27.1429 30.1191 27.6191C30 27.9762 30 28.4524 29.881 28.9286C29.881 29.0476 29.881 29.2857 29.881 29.4048V50V70.4762C29.881 72.2619 30.5953 73.9286 31.7857 75.119C32.9762 76.3095 34.6429 77.0238 36.4286 77.0238C37.0238 77.0238 37.7381 76.9048 38.3334 76.6667C38.9286 76.4286 39.5238 76.1905 40 75.8333L57.5 65.7143L57.7381 65.5952L75.3572 55.4762C75.4762 55.4762 75.4762 55.3571 75.5953 55.3571C77.0238 54.4048 78.0953 52.9762 78.4524 51.4286C78.9286 49.7619 78.6905 47.9762 77.7381 46.4286ZM72.6191 50.1191C72.6191 50.2381 72.5 50.3571 72.381 50.3571H72.2619L54.7619 60.5952L54.6429 60.7143L37.1429 70.8333C37.0238 70.8333 37.0238 70.9524 36.9048 70.9524C36.9048 70.9524 36.7857 70.9524 36.7857 71.0714H36.6667C36.5476 71.0714 36.4286 70.9524 36.3096 70.9524C36.1905 70.8333 36.1905 70.7143 36.1905 70.5952V50V29.5238V29.4048V29.2857C36.3096 29.1667 36.4286 29.0476 36.5476 29.0476C36.6667 29.0476 36.7857 29.0476 36.9048 29.0476L54.5238 39.1667L54.6429 39.2857L72.381 49.5238L72.5 49.6429L72.6191 49.7619C72.6191 49.881 72.6191 50 72.6191 50.1191Z" fill="white"/>
</svg>
