<svg width="100" height="100" viewBox="0 0 100 100" fill="none" xmlns="http://www.w3.org/2000/svg">
<g clip-path="url(#clip0)">
<path d="M97.845 45.0846L94.5337 44.6663L96.582 42.0337C97.3413 41.0531 97.255 39.6606 96.3802 38.7817L92.88 35.2816C92.002 34.4059 90.6095 34.3197 89.6297 35.0797L87.0003 37.133L86.5853 33.8216C86.4298 32.5895 85.3817 31.6658 84.1398 31.6667H79.1935C78.409 31.6764 77.6774 32.0646 77.2282 32.7083L75.0431 29.0666C75.5811 28.2072 75.5298 27.1045 74.9154 26.298L72.867 23.667L76.1784 23.2519C77.4105 23.0965 78.3341 22.0483 78.3333 20.8065V15.8602C78.3325 14.62 77.4089 13.5734 76.1784 13.418L72.867 12.9997L74.9154 10.367C75.6746 9.38639 75.5884 7.99398 74.7135 7.11507L71.2134 3.61491C70.3353 2.74007 68.9429 2.65381 67.9631 3.41309L65.3337 5.46631L64.9186 2.15495C64.7632 0.922852 63.715 -0.000813265 62.4731 5.37334e-07H57.5269C56.2866 0.000814339 55.2401 0.92448 55.0846 2.15495L54.6663 5.46631L52.0337 3.41797C51.0531 2.65869 49.6606 2.74495 48.7817 3.61979L45.2816 7.11995C44.4067 7.99805 44.3205 9.39046 45.0798 10.3703L47.133 12.9997L43.8216 13.4147C42.5895 13.5701 41.6659 14.6183 41.6667 15.8602V17.2054L26.7163 23.1934L23.9152 20.3914C22.7262 19.2025 20.8374 19.0853 19.5101 20.118L12.4284 25.6266C12.0337 25.4508 11.6504 25.2913 11.2785 25.1465L10.1668 16.2687C9.96582 14.5972 8.5498 13.3382 6.86686 13.3333H3.33333V5.37334e-07H0V100H3.33333V86.6666H6.86686C8.54736 86.6626 9.96175 85.4077 10.1668 83.7402L11.2752 74.8535C11.6471 74.7086 12.0304 74.5491 12.4251 74.3734L19.4914 79.873C20.8276 80.9123 22.7279 80.7943 23.925 79.598L27.3633 76.167L41.6667 82.2835V84.1333C41.6667 85.3808 42.596 86.4331 43.833 86.5885L47.1346 86.9946L45.0968 89.6183C44.3254 90.5973 44.41 91.9995 45.293 92.8784L48.7931 96.3786C49.6696 97.2583 51.0653 97.3462 52.0451 96.5836L54.6663 94.5369L55.0749 97.8401C55.2327 99.0763 56.2866 100.002 57.5334 100H62.4666C63.7142 100 64.7664 99.0706 64.9219 97.8336L65.328 94.532L67.9517 96.5698C68.9315 97.3397 70.332 97.2558 71.2117 96.3737L74.7119 92.8735C75.5933 91.9979 75.6812 90.6014 74.917 89.6216L72.8703 87.0003L76.1735 86.5918C77.4097 86.4339 78.3358 85.38 78.3333 84.1333V79.2C78.3325 77.9533 77.404 76.901 76.167 76.7464L72.8703 76.333L74.908 73.7101C75.533 72.9036 75.5867 71.7928 75.0415 70.9302L77.2282 67.2868C77.6758 67.9321 78.4074 68.3219 79.1935 68.3333H84.1398C85.38 68.3325 86.4266 67.4088 86.582 66.1784L87.0003 62.867L89.633 64.9154C90.6136 65.6763 92.0068 65.59 92.8849 64.7135L96.3851 61.2134C97.2599 60.3353 97.3462 58.9429 96.5869 57.963L94.5337 55.3336L97.845 54.9186C99.0771 54.7632 100.001 53.715 100 52.4731V47.5268C99.9992 46.2866 99.0755 45.2401 97.845 45.0846ZM68.9966 36.7513L65.9684 31.7049L67.9679 33.2568C68.9486 34.0177 70.3418 33.9315 71.2199 33.055L72.675 31.5983L75.7031 36.6447L73.7036 35.0936C72.723 34.3343 71.3314 34.4206 70.4517 35.2946L68.9966 36.7513ZM45 16.63L48.9518 16.1304C49.5841 16.0506 50.1156 15.6177 50.3214 15.0146C50.4631 14.6086 50.6299 14.2122 50.8219 13.8265C51.1019 13.2544 51.0311 12.5724 50.6396 12.0703L48.1901 8.92985L50.5965 6.52344L53.7435 8.9681C54.2464 9.35954 54.9276 9.43034 55.4997 9.15039C55.8854 8.95833 56.2817 8.7915 56.6886 8.6499C57.2917 8.44401 57.7238 7.9126 57.8035 7.28027L58.2967 3.33333H61.7033L62.203 7.28516C62.2827 7.91748 62.7157 8.44889 63.3187 8.65478C63.7248 8.79639 64.1219 8.96321 64.5068 9.15527C65.0789 9.43522 65.7609 9.36442 66.263 8.97298L69.41 6.52832L71.8164 8.93473L69.3652 12.0768C68.9738 12.5798 68.903 13.2609 69.1829 13.833C69.375 14.2187 69.5418 14.6151 69.6834 15.022C69.8893 15.625 70.4207 16.0571 71.0531 16.1369L75.0049 16.6366V20.0431L71.0531 20.5436C70.4207 20.6226 69.8893 21.0555 69.6834 21.6585C69.5418 22.0646 69.375 22.4617 69.1829 22.8467C68.903 23.4188 68.9738 24.1007 69.3652 24.6037L71.8099 27.7498L69.4035 30.1571L66.2565 27.7116C65.7568 27.3161 65.0749 27.2404 64.5003 27.5163C64.1146 27.7083 63.7183 27.8752 63.3114 28.0168C62.7083 28.2226 62.2762 28.7541 62.1964 29.3864L61.7033 33.3333H58.2967L57.797 29.3815C57.7173 28.7492 57.2843 28.2178 56.6813 28.0119C56.2752 27.8703 55.8789 27.7034 55.4932 27.5114C54.9211 27.2314 54.2391 27.3022 53.737 27.6937L50.59 30.1383L48.1836 27.7319L50.6283 24.585C51.0197 24.0845 51.0929 23.4058 50.8171 22.8337C50.625 22.4479 50.4582 22.0516 50.3166 21.6447C50.1107 21.0417 49.5793 20.6095 48.9469 20.5298L45 20.0366V16.63ZM3.33333 36.075C9.60693 37.286 14.1398 42.7775 14.1398 49.1667C14.1398 55.5558 9.60693 61.0473 3.33333 62.2583V36.075ZM21.543 77.242L13.667 71.1181C13.1673 70.7291 12.4902 70.6567 11.9198 70.9318C11.0441 71.3623 10.1408 71.7366 9.21631 72.0516C8.60677 72.255 8.16895 72.7905 8.09001 73.4285L6.86686 83.3333H3.33333V65.6502C11.495 64.4295 17.535 57.4194 17.535 49.1667C17.535 40.9139 11.495 33.9038 3.33333 32.6831V16.6667H6.86361L8.09652 26.5666C8.17546 27.2046 8.61409 27.7401 9.22363 27.9435C10.1473 28.2585 11.0506 28.6328 11.9263 29.0633C12.4967 29.3376 13.1738 29.2659 13.6735 28.8769L21.5584 22.7433L28.9071 30.118L22.7848 37.9997C22.3958 38.4993 22.3234 39.1764 22.5985 39.7469C23.029 40.6225 23.4033 41.5259 23.7183 42.4503C23.9217 43.0599 24.4572 43.4977 25.0952 43.5766L35 44.7998V55.1969L25.1001 56.4298C24.4621 56.5088 23.9266 56.9474 23.7231 57.557C23.4082 58.4806 23.0339 59.3839 22.6034 60.2596C22.3291 60.8301 22.4007 61.5071 22.7897 62.0068L28.9233 69.8917L21.543 77.242ZM31.543 67.845L26.0433 60.7633C26.2191 60.3686 26.3786 59.9853 26.5234 59.6134L35.402 58.5067C37.0744 58.304 38.3325 56.8848 38.3333 55.2002V44.7998C38.3293 43.1193 37.0744 41.7049 35.4069 41.4998L26.5202 40.3914C26.3753 40.0203 26.2158 39.637 26.04 39.2415L31.5397 32.1753C32.5781 30.839 32.4601 28.9388 31.2646 27.7417L29.283 25.7617L41.6667 20.7967V20.8065C41.6675 22.0467 42.5911 23.0933 43.8216 23.2487L47.133 23.6637L45.0846 26.2964C44.3254 27.277 44.4116 28.6694 45.2865 29.5483L48.7866 33.0485C49.6647 33.9241 51.0571 34.0104 52.0369 33.2503L54.6663 31.2003L55.0814 34.5117C55.2368 35.7438 56.285 36.6675 57.5269 36.6667H62.4731C63.2576 36.6569 63.9893 36.2687 64.4385 35.625L66.6235 39.2668C66.0856 40.1261 66.1369 41.2288 66.7513 42.0353L68.7996 44.6663L65.4883 45.0814C64.2562 45.2368 63.3325 46.285 63.3333 47.5268V52.4731C63.3341 53.7134 64.2578 54.7599 65.4883 54.9154L68.7996 55.3304L66.7513 57.963C66.1369 58.7703 66.0856 59.873 66.6235 60.7332L64.4385 64.3734C63.986 63.7296 63.2528 63.3431 62.4666 63.3333H57.5334C56.2858 63.3333 55.2336 64.2627 55.0781 65.4997L54.6663 68.7964L52.0435 66.7586C51.0645 65.9871 49.6631 66.0718 48.7834 66.9547L45.2832 70.4549C44.4019 71.3306 44.314 72.727 45.0781 73.7068L47.1297 76.333L43.8265 76.7415C42.7913 76.8823 41.9604 77.666 41.7603 78.6914L29.9032 73.6149L31.2752 72.2436C32.4618 71.0547 32.5789 69.1691 31.5487 67.8434L31.543 67.845ZM71.2101 66.9564C70.3337 66.0758 68.938 65.9879 67.9582 66.7513L65.9717 68.2983L68.9998 63.2568L70.4549 64.7135C71.333 65.59 72.7254 65.6763 73.7052 64.9154L75.7048 63.3634L72.6668 68.4114L71.2101 66.9564ZM75 79.9601V83.3732L71.0449 83.8615C70.3931 83.9437 69.8503 84.4002 69.6582 85.0285C69.5288 85.4248 69.3693 85.8105 69.1813 86.1833C68.9079 86.7529 68.9803 87.4292 69.3685 87.928L71.8115 91.0701L69.3986 93.483L66.2565 91.04C65.7576 90.6518 65.0814 90.5794 64.5117 90.8537C64.139 91.0408 63.7533 91.2003 63.3569 91.3297C62.7287 91.5218 62.2713 92.0646 62.1899 92.7164L61.7065 96.6666H58.2935L57.8052 92.7116C57.723 92.0597 57.2664 91.5169 56.6382 91.3248C56.2419 91.1954 55.8561 91.0359 55.4834 90.848C54.9137 90.5745 54.2375 90.6469 53.7386 91.0351L50.5965 93.4782L48.1836 91.0652L50.6266 87.9232C51.0148 87.4243 51.0872 86.748 50.813 86.1784C50.6258 85.8056 50.4663 85.4199 50.3369 85.0236C50.1449 84.3953 49.6021 83.938 48.9502 83.8566L45 83.3732V79.9601L48.9551 79.4718C49.6069 79.3896 50.1497 78.9331 50.3418 78.3048C50.4712 77.9085 50.6307 77.5228 50.8187 77.15C51.0921 76.5804 51.0197 75.9041 50.6315 75.4053L48.1885 72.2632L50.6014 69.8502L53.7435 72.2933C54.2423 72.6815 54.9186 72.7539 55.4883 72.4796C55.861 72.2925 56.2467 72.133 56.6431 72.0036C57.2713 71.8115 57.7287 71.2687 57.8101 70.6168L58.2935 66.6666H61.7082L62.1948 70.6168C62.2746 71.2703 62.7319 71.8156 63.3618 72.0084C63.7581 72.1378 64.1439 72.2973 64.5166 72.4853C65.0863 72.7588 65.7625 72.6863 66.2614 72.2982L69.4035 69.8551L71.8164 72.2681L69.3734 75.4101C68.9852 75.909 68.9128 76.5853 69.187 77.1549C69.3742 77.5276 69.5337 77.9134 69.6631 78.3097C69.8551 78.938 70.3979 79.3953 71.0498 79.4767L75 79.9601ZM96.6667 51.7033L92.7148 52.2029C92.0825 52.2827 91.5511 52.7156 91.3452 53.3187C91.2036 53.7248 91.0368 54.1211 90.8447 54.5068C90.5648 55.0789 90.6356 55.7609 91.027 56.263L93.4717 59.41L91.0653 61.8164L87.9183 59.3717C87.4178 58.9803 86.7391 58.9071 86.167 59.1829C85.7812 59.375 85.3849 59.5418 84.978 59.6834C84.375 59.8893 83.9429 60.4207 83.8631 61.053L83.3699 65H79.9634L79.4637 61.0482C79.3839 60.4158 78.951 59.8844 78.348 59.6785C77.9419 59.5369 77.5456 59.3701 77.1598 59.178C76.5877 58.8981 75.9058 58.9689 75.4036 59.3603L72.2567 61.805L69.8503 59.3986L72.2949 56.2516C72.6864 55.7511 72.7596 55.0724 72.4837 54.5003C72.2917 54.1146 72.1248 53.7183 71.9832 53.3113C71.7773 52.7083 71.2459 52.2762 70.6136 52.1964L66.6667 51.7033V48.2967L70.6185 47.797C71.2508 47.7173 71.7822 47.2843 71.9881 46.6813C72.1297 46.2752 72.2965 45.8789 72.4886 45.4932C72.7686 44.9211 72.6978 44.2391 72.3063 43.737L69.8616 40.59L72.2681 38.1836L75.415 40.6282C75.918 41.0197 76.5991 41.0905 77.172 40.8097C77.557 40.6185 77.9541 40.4516 78.3602 40.31C78.9632 40.1042 79.3962 39.5719 79.4751 38.9396L79.9748 34.9886H83.3813L83.8818 38.9396C83.9608 39.5719 84.3937 40.1042 84.9967 40.31C85.4028 40.4516 85.8 40.6185 86.1849 40.8097C86.757 41.0905 87.439 41.0197 87.9419 40.6282L91.0881 38.1836L93.4953 40.59L91.0498 43.737C90.6502 44.2375 90.5721 44.9227 90.8496 45.4997C91.0417 45.8854 91.2085 46.2817 91.3501 46.6886C91.556 47.2917 92.0874 47.7238 92.7197 47.8035L96.6715 48.3032L96.6667 51.7033Z" fill="#30394A"/>
<path d="M81.6667 41.6666C77.0646 41.6666 73.3333 45.3979 73.3333 50C73.3333 54.602 77.0646 58.3333 81.6667 58.3333C86.2687 58.3333 90 54.602 90 50C89.9943 45.3995 86.2671 41.6723 81.6667 41.6666ZM81.6667 55C78.9054 55 76.6667 52.7612 76.6667 50C76.6667 47.2387 78.9054 45 81.6667 45C84.4279 45 86.6667 47.2387 86.6667 50C86.6667 52.7612 84.4279 55 81.6667 55Z" fill="#30394A"/>
<path d="M60 26.6667C64.6021 26.6667 68.3333 22.9354 68.3333 18.3333C68.3333 13.7313 64.6021 10 60 10C55.3979 10 51.6667 13.7313 51.6667 18.3333C51.6724 22.9338 55.3996 26.661 60 26.6667ZM60 13.3333C62.7612 13.3333 65 15.5721 65 18.3333C65 21.0946 62.7612 23.3333 60 23.3333C57.2388 23.3333 55 21.0946 55 18.3333C55 15.5721 57.2388 13.3333 60 13.3333Z" fill="#30394A"/>
<path d="M60 73.3333C56.6707 73.3373 53.6645 75.323 52.3519 78.3821C51.04 81.442 51.6748 84.9885 53.9665 87.4031L53.977 87.4112C56.5959 90.1635 60.7446 90.7958 64.0641 88.9493C67.3836 87.102 69.0348 83.2437 68.0778 79.5678C67.1208 75.891 63.7988 73.3276 60 73.3333ZM60 86.6666C58.6377 86.6796 57.3323 86.1222 56.3997 85.1285L55.1831 86.2662L56.3867 85.113C55.4948 84.1878 54.9976 82.9516 55 81.6666C55 78.9054 57.2388 76.6666 60 76.6666C62.7612 76.6666 65 78.9054 65 81.6666C65 84.4278 62.7612 86.6666 60 86.6666Z" fill="#30394A"/>
</g>
<defs>
<clipPath id="clip0">
<rect width="100" height="100" fill="white"/>
</clipPath>
</defs>
</svg>
