<svg width="100" height="100" viewBox="0 0 100 100" fill="none" xmlns="http://www.w3.org/2000/svg">
<path d="M89.3302 19.1283H92.42C93.4978 19.1283 94.3719 18.2542 94.3719 17.1764C94.3719 16.0986 93.4978 15.2246 92.42 15.2246H85.003C83.9252 15.2246 83.0512 16.0986 83.0512 17.1764V24.5934C83.0512 25.6712 83.9252 26.5453 85.003 26.5453C86.0808 26.5453 86.9548 25.6712 86.9548 24.5934V22.4458C92.8771 30.3744 96.0963 39.9945 96.0963 50C96.0963 75.4177 75.4177 96.0963 50 96.0963C24.5823 96.0963 3.90369 75.4177 3.90369 50C3.90369 24.5823 24.5823 3.90369 50 3.90369C51.8798 3.90369 53.7717 4.01787 55.6237 4.24292C56.6923 4.37213 57.6668 3.61111 57.7968 2.54091C57.927 1.47091 57.165 0.49772 56.0948 0.367727C54.0872 0.123747 52.0368 0 50 0C36.6445 0 24.0883 5.20088 14.6447 14.6447C5.20088 24.0883 0 36.6445 0 50C0 63.3555 5.20088 75.9117 14.6447 85.3553C24.0883 94.7991 36.6445 100 50 100C63.3555 100 75.9117 94.7991 85.3553 85.3553C94.7991 75.9117 100 63.3555 100 50C100 38.7299 96.2349 27.9104 89.3302 19.1283Z" fill="#30394A"/>
<path d="M21.1721 29.4754C20.2611 28.8988 19.0555 29.1701 18.4787 30.0805C14.0228 37.118 12.0503 45.5816 12.9245 53.9123C13.8116 62.3665 17.6168 70.339 23.639 76.3614C30.9067 83.6291 40.4533 87.263 50.0002 87.263C59.5471 87.263 69.0935 83.6293 76.3614 76.3614C90.897 61.8258 90.897 38.1746 76.3614 23.6392C70.3484 17.6263 62.3889 13.8226 53.9488 12.9286C45.6335 12.0474 37.1791 14.0045 30.1445 18.4385C29.2324 19.0133 28.9593 20.2186 29.5339 21.1305C30.1088 22.0426 31.314 22.3156 32.2259 21.741C45.4864 13.3832 62.5 15.2986 73.6009 26.3995C86.6145 39.413 86.6145 60.5874 73.6009 73.6009C60.5876 86.6147 39.4128 86.6147 26.3995 73.6009C15.452 62.6534 13.5079 45.2287 21.7771 32.1689C22.3535 31.258 22.0828 30.0522 21.1721 29.4754Z" fill="#30394A"/>
<path d="M75.3742 51.9834H77.7812C78.859 51.9834 79.733 51.1094 79.733 50.0316C79.733 48.9538 78.859 48.0798 77.7812 48.0798H75.3742C74.2964 48.0798 73.4223 48.9538 73.4223 50.0316C73.4223 51.1094 74.2962 51.9834 75.3742 51.9834Z" fill="#30394A"/>
<path d="M20.267 49.9684C20.267 51.0462 21.141 51.9202 22.2188 51.9202H24.6258C25.7036 51.9202 26.5777 51.0462 26.5777 49.9684C26.5777 48.8906 25.7036 48.0165 24.6258 48.0165H22.2188C21.141 48.0165 20.267 48.8904 20.267 49.9684Z" fill="#30394A"/>
<path d="M51.9834 24.6258V22.2188C51.9834 21.141 51.1094 20.267 50.0316 20.267C48.9538 20.267 48.0798 21.141 48.0798 22.2188V24.6258C48.0798 25.7036 48.9538 26.5777 50.0316 26.5777C51.1094 26.5777 51.9834 25.7036 51.9834 24.6258Z" fill="#30394A"/>
<path d="M48.0165 75.3741V77.7811C48.0165 78.8589 48.8906 79.733 49.9684 79.733C51.0462 79.733 51.9202 78.8589 51.9202 77.7811V75.3741C51.9202 74.2963 51.0462 73.4222 49.9684 73.4222C48.8906 73.4222 48.0165 74.2961 48.0165 75.3741Z" fill="#30394A"/>
<path d="M40.2166 37.4561C39.4542 36.6941 38.2187 36.6941 37.4561 37.4561C36.6939 38.2183 36.6939 39.4542 37.4561 40.2166L44.0711 46.8316C43.5642 47.7763 43.2759 48.855 43.2759 50C43.2759 53.7077 46.2923 56.7241 50 56.7241C53.7077 56.7241 56.7241 53.7077 56.7241 50C56.7241 48.855 56.4356 47.7763 55.9289 46.8316L69.2762 33.4843C70.0384 32.7221 70.0384 31.4862 69.2762 30.7238C68.5138 29.9618 67.2783 29.9618 66.5157 30.7238L53.1684 44.0711C52.2237 43.5642 51.145 43.2759 50 43.2759C48.8551 43.2759 47.7763 43.5644 46.8316 44.0711L40.2166 37.4561ZM52.8204 50C52.8204 51.5552 51.5552 52.8204 50 52.8204C48.4448 52.8204 47.1796 51.5552 47.1796 50C47.1796 48.4448 48.4448 47.1796 50 47.1796C51.5552 47.1796 52.8204 48.4448 52.8204 50Z" fill="#30394A"/>
<path d="M26.3983 26.3983C26.7633 26.0352 26.972 25.5316 26.972 25.0183C26.972 24.505 26.7633 24.0034 26.3983 23.6384C26.0353 23.2755 25.5334 23.0665 25.0183 23.0665C24.505 23.0665 24.0014 23.2753 23.6384 23.6384C23.2755 24.0014 23.0665 24.505 23.0665 25.0183C23.0665 25.5336 23.2754 26.0352 23.6384 26.3983C24.0014 26.7611 24.505 26.9702 25.0183 26.9702C25.5334 26.9702 26.0353 26.7611 26.3983 26.3983Z" fill="#30394A"/>
<path d="M63.5204 5.83173C64.0359 5.83173 64.5395 5.62464 64.9023 5.25984C65.2654 4.89679 65.4744 4.39498 65.4744 3.87988C65.4744 3.36655 65.2656 2.86297 64.9023 2.49993C64.5395 2.13708 64.0359 1.92804 63.5204 1.92804C63.0071 1.92804 62.5035 2.13689 62.1407 2.49993C61.7776 2.86297 61.5686 3.36655 61.5686 3.87988C61.5686 4.39517 61.7774 4.89679 62.1407 5.25984C62.5035 5.62464 63.0071 5.83173 63.5204 5.83173Z" fill="#30394A"/>
</svg>
